# xmcd
#
# Track frame offsets:
#	150
#	4950
#	17540
#	19718
#	26818
#	27769
#	39404
#	40928
#	51436
#	58856
#	70590
#	79664
#	80640
#	88354
#	93740
#	101559
#	110498
#	118474
#	124159
#	136501
#	136950
#	145800
#	152673
#	161127
#	174078
#	201845
#	219926
#	224307
#	232677
#	240816
#	242789
#	256587
#	258775
#	270198
#	285261
#	298332
#	308094
#	313710
#	321059
#
# Disc length: 4306 seconds
#
# Revision: 0
# Processed by: cddbd v1.5.2PL0 Copyright (c) Steve Scherf et al.
# Submitted via: dBpowerAMP V4.0
#
DISCID=1510d027
DTITLE=Gelu Voicu and Lautarii din TR - Nunta ca pa' teleorman
DYEAR=2009
DGENRE=Populara
TTITLE0=Primirea nuntasilor
TTITLE1=Pusei briciul sa ma raz
TTITLE2=Impodobitul bradului
TTITLE3=Cantecul bradului
TTITLE4=Strigarea bradului
TTITLE5=Hora satului
TTITLE6=Dialog nuntasi
TTITLE7=Sarba de la Leresti
TTITLE8=Obicei
TTITLE9=Ia-ti mireasa ziua buna
TTITLE10=Hora mare de nunta
TTITLE11=Dialog nuntasi
TTITLE12=Geamparaua fetelor
TTITLE13=Ariciul
TTITLE14=Udatul miresei
TTITLE15=Hora ca la Perii Brosteni
TTITLE16=Sarba ca la nunta
TTITLE17=Obicei 2
TTITLE18=Nuneasca
TTITLE19=Dialog nuntasi 2
TTITLE20=Braul
TTITLE21=Hora in bataie
TTITLE22=Sarba ca la Cosoaia
TTITLE23=Calu-i balan
TTITLE24=Parada instrumentelor
TTITLE25=Spune spune mos batran
TTITLE26=Murguletu ca la Negreni
TTITLE27=Sarba lu Dorel Manea
TTITLE28=Tiganeasca
TTITLE29=Dialog nuntasi 3
TTITLE30=Balada lui Iancu Jianu
TTITLE31=Dialog nuntasi 4
TTITLE32=Canta contrabasu
TTITLE33=Sunt baiat din Teleorman
TTITLE34=Brasoveanca
TTITLE35=Ce frumoasa este viata
TTITLE36=Luatul miresei
TTITLE37=Perinita
TTITLE38=Marsul incheiere nuntii
EXTD=
EXTT0=
EXTT1=
EXTT2=
EXTT3=
EXTT4=
EXTT5=
EXTT6=
EXTT7=
EXTT8=
EXTT9=
EXTT10=
EXTT11=
EXTT12=
EXTT13=
EXTT14=
EXTT15=
EXTT16=
EXTT17=
EXTT18=
EXTT19=
EXTT20=
EXTT21=
EXTT22=
EXTT23=
EXTT24=
EXTT25=
EXTT26=
EXTT27=
EXTT28=
EXTT29=
EXTT30=
EXTT31=
EXTT32=
EXTT33=
EXTT34=
EXTT35=
EXTT36=
EXTT37=
EXTT38=
PLAYORDER=
